<?xml version="1.0" encoding="UTF-8" standalone="no"?>
<!DOCTYPE svg PUBLIC "-//W3C//DTD SVG 1.1//EN" "http://www.w3.org/Graphics/SVG/1.1/DTD/svg11.dtd">
<svg width="100%" height="100%" viewBox="0 0 82 82" version="1.1" xmlns="http://www.w3.org/2000/svg" xmlns:xlink="http://www.w3.org/1999/xlink" xml:space="preserve" xmlns:serif="http://www.serif.com/" style="fill-rule:evenodd;clip-rule:evenodd;stroke-linecap:round;stroke-linejoin:round;">
    <g transform="matrix(1,0,0,1,-329.451,-171.075)">
        <g transform="matrix(1,0,0,1,320.076,161.7)">
            <path d="M66.561,41.667C65.573,54.955 54.955,65.575 41.667,66.561" style="fill:none;stroke:rgb(217,217,217);stroke-width:6.25px;"/>
        </g>
        <g transform="matrix(1,0,0,1,320.076,161.7)">
            <path d="M87.5,50C87.5,45.401 83.766,41.667 79.167,41.667L50,41.667C45.401,41.667 41.667,45.401 41.667,50L41.667,79.167C41.667,83.766 45.401,87.5 50,87.5L79.167,87.5C83.766,87.5 87.5,83.766 87.5,79.167L87.5,50Z" style="fill:none;stroke:rgb(158,158,158);stroke-width:6.25px;"/>
        </g>
        <g transform="matrix(1,0,0,1,320.076,161.7)">
            <path d="M41.667,66.561L39.583,66.667C24.636,66.667 12.5,54.531 12.5,39.583C12.5,24.636 24.636,12.5 39.583,12.5C54.531,12.5 66.667,24.636 66.667,39.583L66.561,41.667" style="fill:none;stroke:rgb(158,158,158);stroke-width:6.25px;"/>
        </g>
    </g>
</svg>
